#!OML:ASF I:\Actors\actors\Patient Classification 1\Patient 1\Session 1\Subject1.ASF
:FULLY-SPECIFIED
:DEGREES
840
root 1.06143 17.4897 9.32048 7.10935 -0.802636 -7.22272
lowerback -1.49068 3.00225 8.659
upperback -7.65745 4.27331 0.25301
thorax -6.63365 1.60705 -4.72295
lowerneck 0.437626 -6.72813 -3.41913
upperneck -2.53051 -8.84476 11.847
head -0.131458 -4.48956 4.46435
rclavicle 1.35174e-014 9.14409e-015
rhumerus 10.3361 27.4042 -68.4323
rradius 139.457
rwrist -57.1835
rhand 1.20205 -67.055
rfingers 7.12502
rthumb 26.7412 -264.815
lclavicle 1.35174e-014 9.14409e-015
lhumerus -60.4181 25.1446 58.2718
lradius 103.465
lwrist 59.817
lhand -40.7481 5.62816
lfingers 7.12502
lthumb -13.6888 35.158
rfemur -2.27806 24.008 23.1651
rtibia 5.12471
rfoot -14.4643 -26.4719
rtoes 4.30807
lfemur 7.58991 -40.8458 -17.1966
ltibia -4.91115
lfoot -18.1804 49.3892
ltoes 10.7227
841
root 1.0593 17.49 9.31827 7.13006 -0.737323 -7.22111
lowerback -1.41812 3.00518 8.67798
upperback -7.70474 4.28634 0.210357
thorax -6.72137 1.60525 -4.78502
lowerneck 0.717603 -6.89009 -3.49443
upperneck -3.47369 -8.97775 11.9714
head -0.465104 -4.58893 4.56025
rclavicle 1.11816e-014 2.06736e-014
rhumerus 10.7156 27.1125 -68.1933
rradius 139.441
rwrist -57.059
rhand 1.37174 -67.0964
rfingers 7.12502
rthumb 26.9036 -264.798
lclavicle 1.11816e-014 2.06736e-014
lhumerus -60.4055 24.99 58.3062
lradius 103.434
lwrist 59.8021
lhand -40.7768 5.60545
lfingers 7.12502
lthumb -13.7165 35.1334
rfemur -2.28433 24.0027 23.1695
rtibia 5.09541
rfoot -14.4973 -26.5184
rtoes 4.44834
lfemur 7.53341 -40.9307 -17.1665
ltibia -4.89285
lfoot -17.9051 49.4569
ltoes 10.2413
842
root 1.05801 17.4911 9.31527 7.15925 -0.705769 -7.27131
lowerback -1.34506 3.05193 8.76358
upperback -7.72789 4.35751 0.150673
thorax -6.77 1.63015 -4.90246
lowerneck 0.72059 -6.94975 -3.39578
upperneck -3.94664 -9.01112 12.0298
head -0.617927 -4.6194 4.57663
rclavicle -1.3418e-015 -1.98785e-014
rhumerus 11.1742 26.6857 -67.8768
rradius 139.419
rwrist -57.1233
rhand 1.4648 -67.1403
rfingers 7.12502
rthumb 26.9926 -264.768
lclavicle -1.3418e-015 -1.98785e-014
lhumerus -60.2473 24.8027 58.4131
lradius 103.399
lwrist 59.7569
lhand -40.7497 5.71626
lfingers 7.12502
lthumb -13.6904 35.246
rfemur -2.3228 24.0015 23.2185
rtibia 5.07518
rfoot -14.4471 -26.5513
rtoes 4.34401
lfemur 7.51001 -41.0409 -17.0764
ltibia -4.93921
lfoot -17.9457 49.535
ltoes 10.5469
843
root 1.05685 17.4925 9.31145 7.19438 -0.666312 -7.30942
lowerback -1.29906 3.05135 8.82225
upperback -7.75722 4.36464 0.138422
thorax -6.82399 1.62604 -4.95213
lowerneck 0.825723 -6.96249 -3.36037
upperneck -4.46579 -8.98017 12.0183
head -0.810403 -4.62054 4.58893
rclavicle 2.93207e-015 -6.36111e-015
rhumerus 11.6225 26.4605 -67.583
rradius 139.421
rwrist -57.131
rhand 1.46553 -67.1625
rfingers 7.12502
rthumb 26.9933 -264.746
lclavicle 2.93207e-015 -6.36111e-015
lhumerus -60.228 24.7553 58.4585
lradius 103.399
lwrist 59.7356
lhand -40.7326 5.73525
lfingers 7.12502
lthumb -13.674 35.2661
rfemur -2.36336 24.0173 23.2477
rtibia 5.03925
rfoot -14.3955 -26.5947
rtoes 4.27581
lfemur 7.42474 -41.0338 -16.9469
ltibia -4.96931
lfoot -18.0757 49.482
ltoes 10.9579
844
root 1.05539 17.4928 9.30834 7.19845 -0.627696 -7.26587
lowerback -1.24482 3.03232 8.77292
upperback -7.7748 4.34362 0.116619
thorax -6.8785 1.61463 -4.95155
lowerneck 0.578082 -6.82894 -3.27887
upperneck -4.26586 -8.81562 11.9895
head -0.72044 -4.52676 4.54694
rclavicle 1.34677e-014 -5.1684e-015
rhumerus 12.0035 26.3071 -67.36
rradius 139.417
rwrist -57.0347
rhand 1.5409 -67.1621
rfingers 7.12502
rthumb 27.0654 -264.758
lclavicle 1.34677e-014 -5.1684e-015
lhumerus -60.2361 24.7393 58.4842
lradius 103.407
lwrist 59.6634
lhand -40.6734 5.85467
lfingers 7.12502
lthumb -13.6168 35.3893
rfemur -2.35179 23.9884 23.1915
rtibia 4.99319
rfoot -14.4229 -26.5764
rtoes 4.47189
lfemur 7.37006 -41.093 -16.9827
ltibia -4.90083
lfoot -18.0659 49.4927
ltoes 10.8295
845
root 1.05283 17.4922 9.30516 7.17645 -0.613462 -7.23739
lowerback -1.16358 3.00661 8.69534
upperback -7.79031 4.3168 0.118435
thorax -6.95031 1.60212 -4.91182
lowerneck -0.079286 -6.40266 -2.97515
upperneck -3.03103 -8.35009 11.8712
head -0.262438 -4.2442 4.38908
rclavicle 1.09829e-014 -2.26615e-014
rhumerus 12.3795 26.1618 -67.1609
rradius 139.353
rwrist -57.0689
rhand 1.65547 -67.157
rfingers 7.12502
rthumb 27.175 -264.78
lclavicle 1.09829e-014 -2.26615e-014
lhumerus -60.2851 24.7709 58.4782
lradius 103.428
lwrist 59.5536
lhand -40.5909 6.0013
lfingers 7.12502
lthumb -13.5373 35.5413
rfemur -2.33065 23.931 23.1713
rtibia 4.99426
rfoot -14.4636 -26.5274
rtoes 4.58478
lfemur 7.38949 -41.2088 -17.0576
ltibia -4.83578
lfoot -18.053 49.5748
ltoes 10.6184
846
root 1.05063 17.4921 9.30043 7.13695 -0.598948 -7.28846
lowerback -1.01752 3.01937 8.73225
upperback -7.77332 4.34806 0.0865918
thorax -7.00757 1.61161 -4.97554
lowerneck -0.251676 -6.50058 -2.94938
upperneck -3.16804 -8.46898 11.8835
head -0.26672 -4.30227 4.38213
rclavicle -1.63003e-014 2.62396e-014
rhumerus 12.6909 25.8492 -67.013
rradius 139.316
rwrist -57.0941
rhand 1.68918 -67.1935
rfingers 7.12502
rthumb 27.2073 -264.748
lclavicle -1.63003e-014 2.62396e-014
lhumerus -60.1399 24.733 58.5434
lradius 103.408
lwrist 59.5067
lhand -40.5334 5.96482
lfingers 7.12502
lthumb -13.4819 35.5085
rfemur -2.30558 23.8872 23.2603
rtibia 5.02066
rfoot -14.4549 -26.5004
rtoes 4.53837
lfemur 7.41254 -41.1663 -17.0073
ltibia -4.82498
lfoot -18.016 49.5269
ltoes 10.5518
847
root 1.04895 17.492 9.29599 7.08397 -0.573943 -7.34622
lowerback -0.885087 2.99353 8.78067
upperback -7.77733 4.33054 0.10159
thorax -7.09028 1.59587 -4.99476
lowerneck 0.329636 -6.94465 -3.15768
upperneck -4.58537 -8.94046 11.9206
head -0.778185 -4.59048 4.4955
rclavicle -2.73329e-015 -1.19271e-015
rhumerus 12.9276 25.6788 -66.8979
rradius 139.319
rwrist -57.0706
rhand 1.74076 -67.3413
rfingers 7.12502
rthumb 27.2566 -264.608
lclavicle -2.73329e-015 -1.19271e-015
lhumerus -60.1626 24.7224 58.5499
lradius 103.399
lwrist 59.5473
lhand -40.5724 5.71219
lfingers 7.12502
lthumb -13.5195 35.2533
rfemur -2.2545 23.8314 23.359
rtibia 5.02029
rfoot -14.4169 -26.471
rtoes 4.51256
lfemur 7.43174 -40.9744 -16.9081
ltibia -4.87237
lfoot -17.8237 49.3561
ltoes 10.3161
848
root 1.04558 17.4922 9.29425 7.05256 -0.554 -7.31916
lowerback -0.805903 3.07245 8.75581
upperback -7.70647 4.43234 -0.0289374
thorax -7.03437 1.6482 -5.12449
lowerneck 0.151269 -7.236 -2.85874
upperneck -5.08167 -9.28349 11.8393
head -0.897485 -4.77241 4.41265
rclavicle -1.76918e-014 2.74323e-014
rhumerus 13.1584 25.1768 -66.7782
rradius 139.304
rwrist -57.0545
rhand 1.72813 -67.5605
rfingers 7.12502
rthumb 27.2446 -264.387
lclavicle -1.76918e-014 2.74323e-014
lhumerus -59.7505 24.4656 58.741
lradius 103.331
lwrist 59.5838
lhand -40.6342 5.52753
lfingers 7.12502
lthumb -13.5791 35.0647
rfemur -2.21178 23.8233 23.3532
rtibia 4.98786
rfoot -14.3789 -26.4974
rtoes 4.49095
lfemur 7.43973 -40.8202 -16.894
ltibia -4.92887
lfoot -17.6 49.2309
ltoes 10.0143
849
root 1.0426 17.4931 9.29285 7.05955 -0.537648 -7.25451
lowerback -0.751134 3.44641 8.78998
upperback -7.60332 4.90623 -0.533448
thorax -6.83647 1.87765 -5.68908
lowerneck -0.911233 -7.52879 -1.5837
upperneck -4.47853 -9.72745 11.5902
head -0.557454 -4.96104 4.00719
rclavicle 4.17448e-015 -3.10104e-014
rhumerus 12.9512 23.7994 -66.8675
rradius 139.318
rwrist -56.8966
rhand 1.58234 -67.5912
rfingers 7.12502
rthumb 27.1051 -264.335
lclavicle 4.17448e-015 -3.10104e-014
lhumerus -58.4725 23.4103 59.2652
lradius 103.124
lwrist 59.5416
lhand -40.6617 5.61459
lfingers 7.12502
lthumb -13.6056 35.15
rfemur -2.2096 23.8479 23.2839
rtibia 4.95495
rfoot -14.3713 -26.5382
rtoes 4.54024
lfemur 7.40946 -40.8248 -16.9442
ltibia -4.91571
lfoot -17.5564 49.2293
ltoes 10.0523
850
root 1.04071 17.4934 9.29075 7.07503 -0.550217 -7.24679
lowerback -0.72332 4.0911 8.90676
upperback -7.62739 5.73657 -1.30827
thorax -6.66052 2.26755 -6.59425
lowerneck -1.93716 -7.72315 0.646566
upperneck -3.19626 -10.1421 11.1292
head -0.0869836 -5.11442 3.35423
rclavicle -4.18442e-014 1.59028e-015
rhumerus 11.9858 21.8067 -67.2458
rradius 139.391
rwrist -56.5694
rhand 1.5549 -67.5519
rfingers 7.12502
rthumb 27.0788 -264.37
lclavicle -4.18442e-014 1.59028e-015
lhumerus -56.845 21.4523 59.9048
lradius 102.835
lwrist 59.5047
lhand -40.7162 5.6956
lfingers 7.12502
lthumb -13.6582 35.2275
rfemur -2.23039 23.8844 23.2704
rtibia 4.95676
rfoot -14.3978 -26.5415
rtoes 4.67826
lfemur 7.39991 -40.9225 -16.9564
ltibia -4.90093
lfoot -17.6969 49.307
ltoes 10.3723
851
root 1.03926 17.4946 9.29018 7.03684 -0.604207 -7.29143
lowerback -0.744169 3.55542 8.78369
upperback -7.49062 5.03966 -0.655551
thorax -6.68542 1.95185 -5.8129
lowerneck -2.05918 -7.1376 -0.929463
upperneck -2.8273 -9.38101 11.4292
head 0.106145 -4.70592 3.73856
rclavicle 2.87244e-014 -3.26007e-014
rhumerus 13.2341 23.3099 -66.822
rradius 139.208
rwrist -56.855
rhand 1.62554 -67.7689
rfingers 7.12502
rthumb 27.1464 -264.163
lclavicle 2.87244e-014 -3.26007e-014
lhumerus -57.969 23.236 59.5408
lradius 102.989
lwrist 59.4579
lhand -40.7579 5.62141
lfingers 7.12502
lthumb -13.6983 35.1506
rfemur -2.19524 23.939 23.3433
rtibia 4.96976
rfoot -14.4049 -26.5297
rtoes 4.72841
lfemur 7.53149 -41.041 -16.9922
ltibia -4.94106
lfoot -17.8486 49.4442
ltoes 10.5755
852
root 1.0395 17.4967 9.28986 6.95329 -0.658965 -7.303
lowerback -0.768371 3.27778 8.7065
upperback -7.46464 4.67952 -0.311558
thorax -6.73348 1.78687 -5.39515
lowerneck -1.00931 -7.25732 -2.10176
upperneck -4.16459 -9.39405 11.7299
head -0.429532 -4.7771 4.14265
rclavicle 2.5345e-014 3.02153e-014
rhumerus 13.615 24.211 -66.7265
rradius 139.091
rwrist -57.0653
rhand 1.66491 -67.7296
rfingers 7.12502
rthumb 27.1841 -264.209
lclavicle 2.5345e-014 3.02153e-014
lhumerus -58.7462 24.0469 59.2575
lradius 103.089
lwrist 59.5037
lhand -40.7591 5.47176
lfingers 7.12502
lthumb -13.6995 35.0008
rfemur -2.09153 23.9451 23.3905
rtibia 4.92763
rfoot -14.3381 -26.5026
rtoes 4.59854
lfemur 7.72116 -41.131 -17.1252
ltibia -4.95359
lfoot -17.9788 49.5701
ltoes 10.6317
853
root 1.03978 17.4974 9.28621 6.92503 -0.680121 -7.27695
lowerback -0.867762 2.94787 8.5434
upperback -7.66835 4.25557 0.0877333
thorax -7.00183 1.58057 -4.87282
lowerneck 0.640383 -6.96323 -3.28778
upperneck -4.79131 -8.94862 12.0417
head -0.888047 -4.60912 4.58579
rclavicle 1.04859e-014 2.78299e-014
rhumerus 13.4895 25.519 -66.8379
rradius 139.066
rwrist -57.2681
rhand 1.67173 -67.5131
rfingers 7.12502
rthumb 27.1906 -264.426
lclavicle 1.04859e-014 2.78299e-014
lhumerus -60.1374 24.7579 58.6703
lradius 103.24
lwrist 59.5864
lhand -40.6038 5.56798
lfingers 7.12502
lthumb -13.5498 35.1071
rfemur -2.06624 23.9369 23.3596
rtibia 4.89011
rfoot -14.2965 -26.4867
rtoes 4.58828
lfemur 7.73701 -41.158 -17.1901
ltibia -4.90276
lfoot -18.1583 49.5995
ltoes 10.7605
854
root 1.03838 17.497 9.28106 6.95421 -0.672972 -7.31278
lowerback -0.895439 2.99181 8.56441
upperback -7.70268 4.31115 0.0324711
thorax -7.0102 1.60359 -4.94398
lowerneck 0.463033 -6.8777 -3.14544
upperneck -3.98106 -8.90489 12.0154
head -0.604872 -4.5628 4.51447
rclavicle -5.1684e-015 -1.31198e-014
rhumerus 13.183 25.5687 -67.017
rradius 139.087
rwrist -57.1746
rhand 1.6604 -67.4399
rfingers 7.12502
rthumb 27.1798 -264.498
lclavicle -5.1684e-015 -1.31198e-014
lhumerus -60.0663 24.6099 58.7084
lradius 103.218
lwrist 59.5796
lhand -40.4688 5.86571
lfingers 7.12502
lthumb -13.4197 35.4135
rfemur -2.13874 23.9614 23.3832
rtibia 4.92731
rfoot -14.337 -26.4938
rtoes 4.75469
lfemur 7.62373 -41.1188 -17.0635
ltibia -4.87127
lfoot -18.1318 49.558
ltoes 10.7033
